<svg width="77" height="78" viewBox="0 0 77 78" fill="none" xmlns="http://www.w3.org/2000/svg">
<path d="M75.5366 38.9658C75.5366 40.2455 75.4723 41.4965 75.3495 42.7444L51.9479 61.0448L32.6276 76.1543C16.8289 73.6949 4.30912 61.1811 1.65454 45.2763L6.66126 19.222C10.3399 13.2053 15.6566 8.2802 22.0213 5.13321C26.9262 2.70708 32.454 1.33667 38.3351 1.33667C58.8815 1.33667 75.5366 18.1831 75.5366 38.9658Z" fill="#A4E7FF"/>
<path d="M51.9478 61.0448L32.6276 76.1543C16.8289 73.6949 4.30912 61.1811 1.65454 45.2764L6.66126 19.222C10.3399 13.2053 15.6566 8.28024 22.0213 5.13324C21.1529 15.4588 21.7084 44.3934 51.9478 61.0448Z" fill="#83DEFF"/>
<path d="M75.3494 42.7444C74.4287 52.0899 70.1616 60.3315 63.8523 66.3453C55.8436 73.975 44.5455 78.014 32.6276 76.1543C32.5602 70.4737 33.6637 63.4694 38.4054 58.4053C39.8996 56.8074 40.9267 55.3369 41.5975 53.9953C43.0288 51.133 42.8372 48.8492 42.105 47.1455C41.0031 44.583 40.2605 39.9534 42.8447 38.966C50.5808 36.0066 66.0637 34.4315 75.3494 42.7444Z" fill="#9CDA82"/>
<path d="M63.8522 66.3454C55.8436 73.9751 44.5455 78.0141 32.6276 76.1544C32.5602 70.4737 33.6637 63.4695 38.4054 58.4053C39.8996 56.8075 40.9267 55.3369 41.5975 53.9953C47.2839 58.7732 54.559 63.0454 63.8522 66.3454Z" fill="#8DD470"/>
<path d="M27.8597 30.9838C30.4094 30.9838 32.4763 29.3189 32.4763 27.2651C32.4763 25.2114 30.4094 23.5464 27.8597 23.5464C25.3101 23.5464 23.2432 25.2114 23.2432 27.2651C23.2432 29.3189 25.3101 30.9838 27.8597 30.9838Z" fill="white"/>
<path d="M52.8831 30.9838C55.4328 30.9838 57.4997 29.3189 57.4997 27.2651C57.4997 25.2114 55.4328 23.5464 52.8831 23.5464C50.3335 23.5464 48.2666 25.2114 48.2666 27.2651C48.2666 29.3189 50.3335 30.9838 52.8831 30.9838Z" fill="white"/>
<path d="M47.3534 52.6493C51.7117 52.6493 55.2447 49.0756 55.2447 44.6673C55.2447 40.259 51.7117 36.6853 47.3534 36.6853C42.9952 36.6853 39.4622 40.259 39.4622 44.6673C39.4622 49.0756 42.9952 52.6493 47.3534 52.6493Z" fill="#FFEAB7"/>
<path d="M47.3542 33.2639C41.1272 33.2639 36.0801 38.4235 36.0801 44.7873C36.0801 49.5396 42.3699 58.7641 45.553 63.1272C46.4514 64.3599 48.2555 64.3599 49.1538 63.1272C52.3384 58.7641 58.6268 49.5396 58.6268 44.7873C58.6268 38.4235 53.5796 33.2639 47.3542 33.2639ZM47.3542 50.5483C44.24 50.5483 41.7171 47.9692 41.7171 44.7873C41.7171 41.6054 44.24 39.0264 47.3542 39.0264C50.4669 39.0264 52.9897 41.6054 52.9897 44.7873C52.9897 47.9692 50.4669 50.5483 47.3542 50.5483Z" fill="#FF6E80"/>
<path d="M12.4061 30.9833C12.4061 37.8028 7.85306 43.5486 1.65454 45.2765C0.177231 36.4351 1.8152 27.1525 6.66276 19.2177C10.1543 21.9238 12.4061 26.1884 12.4061 30.9833Z" fill="#8DD470"/>
<path d="M12.4067 20.7213C16.7649 20.7213 20.2979 17.1477 20.2979 12.7394C20.2979 8.33104 16.7649 4.75739 12.4067 4.75739C8.04843 4.75739 4.51538 8.33104 4.51538 12.7394C4.51538 17.1477 8.04843 20.7213 12.4067 20.7213Z" fill="#FFEAB7"/>
<path d="M12.4062 1.33679C6.18069 1.33679 1.13354 6.49496 1.13354 12.8586C1.13354 17.6124 7.42189 26.8353 10.6065 31.1998C11.5048 32.4327 13.309 32.4327 14.2073 31.1998C17.3904 26.8353 23.6803 17.6123 23.6803 12.8586C23.6803 6.49481 18.6331 1.33679 12.4062 1.33679ZM12.4062 18.621C9.29342 18.621 6.7706 16.0404 6.7706 12.8586C6.7706 9.67663 9.29342 7.0977 12.4062 7.0977C15.5204 7.0977 18.0432 9.67663 18.0432 12.8586C18.0432 16.0404 15.5204 18.621 12.4062 18.621Z" fill="#FF6E80"/>
<path d="M70.3125 60.3622C84.0472 39.3339 74.5605 10.7349 51.0466 2.38148C50.4613 2.17309 49.8206 2.48506 49.6149 3.07675C49.4093 3.66859 49.7172 4.31692 50.3023 4.52486C65.1277 9.79176 75.0504 24.3128 74.3868 40.5133C69.6952 37.1113 63.7658 35.7625 56.7195 36.5003C54.445 33.8251 51.0943 32.1285 47.3607 32.1285C40.5255 32.1285 34.9646 37.807 34.9646 44.7869C34.9646 47.6022 36.9023 51.7209 39.2408 55.6667C38.7642 56.3092 38.2138 56.9651 37.5971 57.6241C36.0089 59.3203 34.7103 61.3309 33.7374 63.5998C33.4907 64.1754 33.7519 64.8442 34.3209 65.0938C34.8934 65.345 35.5528 65.0753 35.7979 64.5038C36.6661 62.4785 37.8202 60.6894 39.2279 59.1861C39.6853 58.6973 40.1105 58.2081 40.5017 57.722C41.9479 60.005 43.4402 62.1355 44.6561 63.8021C46.0049 65.6513 48.7161 65.6514 50.0651 63.8021C53.6847 58.8396 59.7567 49.7709 59.7567 44.7869C59.7567 42.562 59.1897 40.4706 58.1985 38.6519C64.6837 38.2097 70.0498 39.7405 74.1758 43.216C71.8587 63.1886 53.8886 77.7584 33.7581 75.1628C33.7882 72.9224 34.0149 70.8026 34.4342 68.8491C34.5658 68.2361 34.1814 67.6312 33.5753 67.4981C32.9686 67.3656 32.3712 67.7539 32.2396 68.3669C31.8093 70.3708 31.5705 72.531 31.5211 74.8015C16.8288 71.9508 5.73032 60.331 2.94623 46.0579C8.54391 44.088 12.6053 39.0619 13.3927 33.1144C14.0751 32.9055 14.6776 32.4783 15.1184 31.8742C18.7379 26.9118 24.8101 17.8431 24.8101 12.8589C24.8101 10.3345 24.0799 7.98261 22.8279 6.00567C30.2369 2.42115 38.4636 1.65273 45.9783 3.2912C46.5847 3.42386 47.1821 3.03329 47.3126 2.42009C47.4432 1.8069 47.0576 1.20264 46.4514 1.07043C38.3528 -0.695099 29.4537 0.156165 21.4175 4.17184C19.1561 1.72921 15.9574 0.200538 12.4138 0.200538C5.5785 0.200538 0.0176586 5.87906 0.0176586 12.8589C0.0176586 15.3944 1.5896 18.9873 3.6101 22.5586C0.288207 29.7164 -0.769283 37.6233 0.554414 45.4653C3.41382 62.5971 17.4181 75.8649 34.3875 77.5275C48.6124 79.0578 62.4066 72.3847 70.3125 60.3622ZM48.2581 62.4532C47.8079 63.0706 46.9139 63.071 46.4635 62.4532C40.6697 54.5098 37.2105 47.9056 37.2105 44.7869C37.2105 39.0596 41.7639 34.4001 47.3608 34.4001C52.9578 34.4001 57.5111 39.0596 57.5111 44.7869C57.5111 47.9056 54.0519 54.5098 48.2581 62.4532ZM2.57387 43.7807C1.72659 37.3392 2.56758 30.8922 5.02378 24.9447C6.62956 27.5458 8.34403 30.0022 9.7095 31.8742C10.0861 32.3903 10.5809 32.776 11.1423 33.008C10.4244 37.8938 7.12559 42.0286 2.57387 43.7807ZM12.4138 2.47219C18.0107 2.47219 22.5641 7.1318 22.5641 12.8589C22.5641 15.9779 19.1049 22.5821 13.3111 30.5253C12.8612 31.1424 11.967 31.143 11.5165 30.5253C5.72254 22.5821 2.2635 15.9778 2.2635 12.8589C2.2635 7.1318 6.81686 2.47219 12.4138 2.47219Z" fill="#FDFEFF"/>
<path d="M31.6804 23.6392V21.8219C31.6804 21.1945 31.1776 20.6861 30.5575 20.6861C29.9373 20.6861 29.4346 21.1945 29.4346 21.8219V23.6392C29.4346 24.2667 29.9373 24.7751 30.5575 24.7751C31.1776 24.7751 31.6804 24.2665 31.6804 23.6392Z" fill="black"/>
<path d="M42.1213 22.882C41.1944 23.958 39.5543 23.948 38.6359 22.882C38.2285 22.4093 37.5193 22.3598 37.0517 22.7719C36.5841 23.184 36.5355 23.9015 36.9429 24.3745C38.7576 26.4807 41.9948 26.4865 43.8145 24.3745C44.2221 23.9015 44.1733 23.1841 43.7057 22.7719C43.2379 22.3598 42.5286 22.409 42.1213 22.882Z" fill="black"/>
<path d="M48.4645 24.7244C49.0848 24.7244 49.5874 24.216 49.5874 23.5886C49.5874 23.0537 50.0177 22.6185 50.5465 22.6185C51.0753 22.6185 51.5056 23.0537 51.5056 23.5886C51.5056 24.216 52.0083 24.7244 52.6286 24.7244C53.2489 24.7244 53.7515 24.216 53.7515 23.5886C53.7515 21.801 52.3137 20.3468 50.5465 20.3468C48.7793 20.3468 47.3416 21.8011 47.3416 23.5886C47.3416 24.2159 47.8442 24.7244 48.4645 24.7244Z" fill="black"/>
<path d="M49.2748 38.1728C49.2416 38.1613 49.2077 38.1514 49.1732 38.1433C45.013 36.96 40.603 40.0198 40.603 44.9384C40.603 44.9656 40.6051 44.9923 40.6071 45.0191C40.7279 48.7146 43.7101 51.6837 47.3609 51.6837C51.0883 51.6837 54.1204 48.5895 54.1204 44.7865C54.1204 41.6616 52.0727 39.0171 49.2748 38.1728ZM47.3609 49.412C44.8721 49.412 42.8472 47.3371 42.8472 44.7865C42.8472 42.236 44.8721 40.1611 47.3609 40.1611C49.8497 40.1611 51.8746 42.236 51.8746 44.7865C51.8746 47.3369 49.8497 49.412 47.3609 49.412Z" fill="black"/>
<path d="M17.2564 38.1385C16.8179 38.5821 16.8179 39.3012 17.2564 39.7448L19.6478 42.1636C20.0863 42.607 20.7973 42.6072 21.2357 42.1635C21.6743 41.7199 21.6743 41.0008 21.2357 40.5573L18.8444 38.1384C18.406 37.695 17.6949 37.6948 17.2564 38.1385Z" fill="black"/>
<path d="M22.8362 43.7828C22.3977 44.2263 22.3977 44.9454 22.8362 45.389L25.2276 47.8078C25.6661 48.2513 26.3772 48.2514 26.8156 47.8077C27.2541 47.3641 27.2541 46.6451 26.8156 46.2015L24.4242 43.7826C23.9856 43.3392 23.2746 43.339 22.8362 43.7828Z" fill="black"/>
<path d="M28.4163 49.4267C27.9778 49.8703 27.9778 50.5895 28.4163 51.0329L30.8078 53.4518C31.2464 53.8952 31.9574 53.8953 32.3958 53.4516C32.8343 53.008 32.8343 52.2888 32.3958 51.8454L30.0044 49.4265C29.5659 48.9831 28.8548 48.9831 28.4163 49.4267Z" fill="black"/>
<path d="M12.4133 5.96124C8.68667 5.96124 5.65479 9.05523 5.65479 12.858C5.65479 16.6516 8.67768 19.7562 12.4133 19.7562C16.1414 19.7562 19.1732 16.6622 19.1732 12.858C19.1732 9.06129 16.1412 5.96124 12.4133 5.96124ZM12.4133 17.5194C9.86798 17.5194 7.8048 15.4327 7.8048 12.8581C7.8048 10.2851 9.86798 8.19806 12.4133 8.19806C14.9585 8.19806 17.0217 10.285 17.0217 12.8581C17.0217 15.4325 14.9585 17.5194 12.4133 17.5194Z" fill="black"/>
</svg>
