<svg width="76" height="76" viewBox="0 0 76 76" fill="none" xmlns="http://www.w3.org/2000/svg">
<path d="M53.8078 29.4325C57.8319 29.4325 61.0941 26.1703 61.0941 22.1462C61.0941 18.1221 57.8319 14.8599 53.8078 14.8599C49.7837 14.8599 46.5215 18.1221 46.5215 22.1462C46.5215 26.1703 49.7837 29.4325 53.8078 29.4325Z" fill="#A83229"/>
<path d="M48.9504 75.5791H7.66138L28.3059 54.9346L48.9504 75.5791Z" fill="#4A9BF6"/>
<path d="M75.6667 7.57367V68.2928C75.6667 70.2253 74.899 72.0786 73.5326 73.445C72.1661 74.8115 70.3128 75.5791 68.3804 75.5791H63.5229L35.592 47.6483L44.8335 38.4069C47.6303 42.0546 50.6263 45.5451 53.8078 48.8627C53.8078 48.8627 70.8091 31.5334 70.8091 22.1463C70.8106 19.428 70.1566 16.7495 68.9026 14.3378L75.6667 7.57367Z" fill="#D3D9F2"/>
<path d="M75.6669 7.57365L68.9028 14.3378C67.2923 11.2093 64.7449 8.66195 61.6165 7.05147L68.3806 0.287354C70.313 0.287354 72.1663 1.05501 73.5328 2.42146C74.8992 3.78791 75.6669 5.64121 75.6669 7.57365Z" fill="#FFDF64"/>
<path d="M63.523 75.5791H48.9504L28.3059 54.9346L35.5922 47.6483L63.523 75.5791Z" fill="#F7F7FF"/>
<path d="M44.8336 38.4068L35.5921 47.6483L28.3058 54.9346L7.6613 75.5791C5.72885 75.5791 3.87555 74.8114 2.50911 73.445C1.14266 72.0785 0.375 70.2252 0.375 68.2928L39.1017 29.5661C40.7559 32.6715 42.6736 35.6293 44.8336 38.4068Z" fill="#FFDF64"/>
<path d="M68.3804 0.287354L61.6163 7.05147C59.0257 5.70851 56.1328 5.05541 53.2165 5.1551C50.3001 5.25479 47.4586 6.1039 44.9657 7.62063C42.4728 9.13735 40.4126 11.2706 38.9835 13.8147C37.5544 16.3589 36.8047 19.2282 36.8065 22.1462C36.9952 24.7623 37.7803 27.3004 39.1017 29.5661L0.375 68.2928V7.57365C0.375 5.64121 1.14266 3.78791 2.50911 2.42146C3.87555 1.05501 5.72885 0.287354 7.6613 0.287354H68.3804Z" fill="#28BE77"/>
<path d="M68.9025 14.3377C70.1566 16.7494 70.8106 19.428 70.8091 22.1462C70.8091 31.5334 53.8078 48.8626 53.8078 48.8626C50.6263 45.5451 47.6303 42.0545 44.8335 38.4068C42.6735 35.6293 40.7558 32.6715 39.1016 29.5661C37.7802 27.3004 36.9951 24.7623 36.8064 22.1462C36.8096 18.3386 38.0908 14.6423 40.4447 11.6496C42.7987 8.65685 46.0892 6.54092 49.7888 5.64085C53.4885 4.74078 57.3832 5.10868 60.8489 6.68559C64.3146 8.2625 67.1506 10.9571 68.9025 14.3377ZM61.0941 22.1462C61.0941 20.7051 60.6667 19.2964 59.8661 18.0982C59.0655 16.8999 57.9275 15.966 56.5961 15.4146C55.2647 14.8631 53.7997 14.7188 52.3863 14.9999C50.9729 15.2811 49.6746 15.975 48.6556 16.994C47.6366 18.013 46.9426 19.3113 46.6615 20.7247C46.3803 22.1381 46.5246 23.6032 47.0761 24.9346C47.6276 26.266 48.5615 27.4039 49.7597 28.2045C50.9579 29.0052 52.3667 29.4325 53.8078 29.4325C55.7402 29.4325 57.5935 28.6649 58.9599 27.2984C60.3264 25.932 61.0941 24.0787 61.0941 22.1462Z" fill="#D73D3F"/>
<path d="M12.5189 70.7216L7.66138 75.5791H48.9504L44.0929 70.7216H12.5189Z" fill="#3B7CC4"/>
<path d="M68.3803 70.7216H58.6653L63.5228 75.5791H68.3803C70.3128 75.5791 72.1661 74.8115 73.5325 73.445C74.899 72.0786 75.6666 70.2253 75.6666 68.2928V63.4353C75.6666 65.3677 74.899 67.221 73.5325 68.5875C72.1661 69.9539 70.3128 70.7216 68.3803 70.7216Z" fill="#AEB2D4"/>
<path d="M74.5945 8.64597C75.2954 9.78412 75.6667 11.0945 75.6668 12.4312V7.57367L74.5945 8.64597Z" fill="#B8BCE0"/>
<path d="M68.3805 5.14489C69.6297 5.146 70.8575 5.46867 71.9459 6.08186C73.0342 6.69504 73.9463 7.57808 74.5945 8.64595L75.6668 7.57365C75.6668 5.64121 74.8991 3.78791 73.5327 2.42146C72.1662 1.05501 70.3129 0.287354 68.3805 0.287354L63.5229 5.14489H68.3805Z" fill="#FFB844"/>
<path d="M44.0928 70.7216L48.9503 75.5791H63.5229L58.6654 70.7216H44.0928Z" fill="#CACFE8"/>
<path d="M7.6613 70.7216C6.41212 70.7205 5.18426 70.3978 4.09593 69.7846C3.0076 69.1714 2.09545 68.2884 1.4473 67.2205L0.375 68.2928C0.375 70.2253 1.14266 72.0786 2.50911 73.445C3.87555 74.8115 5.72885 75.5791 7.6613 75.5791L12.5188 70.7216H7.6613Z" fill="#FFB844"/>
<path d="M0.375 63.4353V68.2928L1.4473 67.2205C0.746344 66.0824 0.375126 64.772 0.375 63.4353Z" fill="#1FA463"/>
<path d="M7.6613 5.14489H63.5229L68.3804 0.287354H7.6613C5.72885 0.287354 3.87555 1.05501 2.50911 2.42146C1.14266 3.78791 0.375 5.64121 0.375 7.57365V12.4312C0.375 10.4987 1.14266 8.64544 2.50911 7.27899C3.87555 5.91255 5.72885 5.14489 7.6613 5.14489Z" fill="#1FA463"/>
<path d="M14.9475 25.7894C13.0991 25.7895 11.2809 25.3208 9.66289 24.4272C8.04487 23.5336 6.67991 22.2442 5.69567 20.6797C4.71143 19.1151 4.14006 17.3265 4.035 15.4811C3.92995 13.6357 4.29463 11.7938 5.09495 10.1277C5.89527 8.46154 7.10508 7.02558 8.61123 5.95411C10.1174 4.88264 11.8707 4.21066 13.7071 4.00101C15.5436 3.79136 17.4032 4.0509 19.1121 4.75534C20.821 5.45979 22.3233 6.58613 23.4786 8.02903L19.6836 11.065C18.8539 10.0302 17.7082 9.29558 16.4215 8.97338C15.1349 8.65118 13.7782 8.75913 12.5587 9.28073C11.3392 9.80234 10.324 10.7089 9.66838 11.8619C9.01272 13.0148 8.75262 14.3508 8.92783 15.6655C9.10305 16.9802 9.70393 18.2014 10.6387 19.1425C11.5734 20.0835 12.7905 20.6926 14.104 20.8766C15.4176 21.0606 16.7552 20.8095 17.9126 20.1616C19.0699 19.5137 19.9833 18.5047 20.5131 17.2887H14.9475V12.4312H23.4482C24.0924 12.4312 24.7101 12.6871 25.1656 13.1425C25.6211 13.598 25.877 14.2158 25.877 14.8599C25.8735 17.7575 24.7208 20.5354 22.6719 22.5843C20.623 24.6332 17.8451 25.7858 14.9475 25.7894Z" fill="#F7F7FF"/>
<path d="M53.8078 19.7175C55.3131 19.7192 56.781 20.1871 58.0096 21.057C59.2382 21.9268 60.1673 23.1558 60.6691 24.575C61.0621 23.4754 61.185 22.2974 61.0275 21.1403C60.8701 19.9832 60.4368 18.8809 59.7642 17.9263C59.0916 16.9716 58.1994 16.1926 57.1628 15.6549C56.1262 15.1172 54.9756 14.8365 53.8078 14.8365C52.64 14.8365 51.4894 15.1172 50.4527 15.6549C49.4161 16.1926 48.524 16.9716 47.8514 17.9263C47.1788 18.8809 46.7455 19.9832 46.588 21.1403C46.4306 22.2974 46.5535 23.4754 46.9465 24.575C47.4483 23.1558 48.3774 21.9268 49.606 21.057C50.8346 20.1871 52.3024 19.7192 53.8078 19.7175Z" fill="#91323C"/>
<path d="M37.0493 24.2228C36.8925 25.1416 36.8112 26.0717 36.8064 27.0038C36.8497 28.3883 37.1239 29.7559 37.6176 31.0501L39.1016 29.5661C38.1857 27.8829 37.4957 26.0864 37.0493 24.2228Z" fill="#1FA463"/>
<path d="M70.5579 24.2532C68.4801 33.9027 53.8079 48.8626 53.8079 48.8626C50.6264 45.5451 47.6304 42.0545 44.8336 38.4068L42.7935 40.447C43.4602 41.4027 44.139 42.3487 44.8336 43.2643C47.6304 46.912 50.6264 50.4026 53.8079 53.7202C53.8079 53.7202 70.8093 36.3909 70.8093 27.0038C70.8011 26.0815 70.717 25.1616 70.5579 24.2532Z" fill="#AEB2D4"/>
<path d="M39.1017 29.5661L37.6177 31.0501C38.0327 32.208 38.5286 33.3352 39.1017 34.4236C40.1964 36.5116 41.4297 38.5238 42.7934 40.447L44.8335 38.4068C42.6736 35.6293 40.7559 32.6715 39.1017 29.5661Z" fill="#FFB844"/>
</svg>
