<svg width="74" height="75" viewBox="0 0 74 75" fill="none" xmlns="http://www.w3.org/2000/svg">
<path d="M30.4813 32.5387H7.65311L0.28125 74.3125H73.9998L66.628 32.5387H43.7998H30.4813Z" fill="#E2E7F7"/>
<path d="M7.0265 71.8553C6.65171 71.8555 6.28141 71.7737 5.94161 71.6155C5.60181 71.4574 5.30074 71.2268 5.05954 70.94C4.81834 70.6531 4.64286 70.3169 4.54542 69.955C4.44798 69.5931 4.43094 69.2143 4.49549 68.8451L10.6387 33.9762C10.6694 33.7983 10.6605 33.6158 10.6127 33.4417C10.5649 33.2676 10.4793 33.1062 10.362 32.9689C10.2446 32.8317 10.0985 32.722 9.93401 32.6476C9.76948 32.5733 9.59059 32.5361 9.41006 32.5387H7.65311L0.28125 74.3126H72.5377C72.7183 74.3152 72.8971 74.278 73.0617 74.2036C73.2262 74.1293 73.3723 74.0196 73.4896 73.8823C73.6069 73.7451 73.6925 73.5837 73.7404 73.4096C73.7882 73.2355 73.7971 73.053 73.7664 72.875C73.7166 72.5866 73.5655 72.3253 73.3403 72.1384C73.115 71.9514 72.8304 71.851 72.5377 71.8553H7.0265Z" fill="#B8BCE1"/>
<path d="M66.628 32.5387H21.2419C21.7728 42.3361 25.4593 51.6988 31.7507 59.2281C38.042 66.7573 46.6006 72.049 56.1477 74.3125H73.9999L66.628 32.5387Z" fill="#F6F8FF"/>
<path d="M41.748 37.4532H61.7135L67.8567 69.398H6.42456L12.5678 37.4532H32.5332H41.748Z" fill="#FFC239"/>
<path d="M61.7134 37.4532H21.7703C22.8712 44.0798 25.4251 50.3806 29.2487 55.9036C33.0723 61.4266 38.0709 66.0349 43.8858 69.398H67.8567L61.7134 37.4532Z" fill="#FFD55D"/>
<path d="M48.6037 37.4532L42.6448 55.3423L8.59912 58.0699L12.5676 37.4532H48.6037Z" fill="#94D531"/>
<path d="M12.5676 37.4532L8.63599 58.0699L29.6089 56.3866C25.5879 50.7589 22.9182 44.28 21.807 37.4532H12.5676Z" fill="#78B22A"/>
<path d="M50.5696 12.5978C50.2153 9.5636 48.849 6.73728 46.6911 4.57497C44.5333 2.41266 41.7098 1.04051 38.6763 0.679967C38.1667 0.619692 37.6538 0.590969 37.1405 0.593962C36.6355 0.591973 36.1308 0.620695 35.6293 0.679967C33.47 0.925562 31.4019 1.68823 29.6001 2.9033C27.7984 4.11837 26.3162 5.75001 25.2793 7.65986C24.2424 9.56971 23.6813 11.7014 23.6436 13.8743C23.606 16.0471 24.0929 18.197 25.063 20.1417C25.8002 21.616 26.5742 23.0781 27.2131 24.6139L37.1405 48.511L47.0925 24.6139C47.7314 23.0781 48.5055 21.616 49.2427 20.1417C50.4032 17.8076 50.864 15.1878 50.5696 12.5978ZM37.1405 21.4809C35.6825 21.4809 34.2572 21.0485 33.0449 20.2385C31.8327 19.4285 30.8878 18.2771 30.3298 16.9301C29.7719 15.5831 29.6259 14.1009 29.9103 12.6709C30.1948 11.2409 30.8969 9.92731 31.9278 8.89634C32.9588 7.86537 34.2724 7.16327 35.7024 6.87882C37.1324 6.59438 38.6146 6.74037 39.9616 7.29832C41.3087 7.85628 42.46 8.80115 43.27 10.0134C44.08 11.2257 44.5124 12.651 44.5124 14.109C44.5124 16.0642 43.7357 17.9392 42.3532 19.3217C40.9707 20.7042 39.0957 21.4809 37.1405 21.4809Z" fill="#B53C33"/>
<path d="M37.9638 69.398L40.9617 60.3921L7.6532 63.0582L6.42456 69.398H37.9638Z" fill="#DFE6EA"/>
<path d="M44.1069 69.398L47.2768 59.8883L65.7065 58.4139L67.8566 69.398H44.1069Z" fill="#94D531"/>
<path d="M64.8097 53.573L48.9602 54.8017L54.7471 37.4532H61.7135L64.8097 53.573Z" fill="#DFE6EA"/>
<path d="M38.6763 0.679967C38.1667 0.619692 37.6538 0.590969 37.1405 0.593962C36.6355 0.591973 36.1308 0.620695 35.6293 0.679967C33.47 0.925562 31.4019 1.68823 29.6001 2.9033C27.7984 4.11837 26.3162 5.75001 25.2793 7.65986C24.2424 9.56971 23.6813 11.7014 23.6436 13.8743C23.606 16.0471 24.0929 18.197 25.063 20.1417C25.6036 21.2229 26.1442 22.3041 26.6602 23.4099C30.8445 28.6754 36.6414 32.422 43.1609 34.0745L47.0925 24.6139C47.7314 23.0781 48.5055 21.616 49.2427 20.1417C50.2128 18.197 50.6997 16.0471 50.662 13.8743C50.6244 11.7014 50.0633 9.56971 49.0264 7.65986C47.9895 5.75001 46.5073 4.11837 44.7055 2.9033C42.9038 1.68823 40.8356 0.925562 38.6763 0.679967ZM37.1405 21.4809C35.6825 21.4809 34.2572 21.0485 33.045 20.2385C31.8327 19.4285 30.8878 18.2771 30.3298 16.9301C29.7719 15.5831 29.6259 14.1009 29.9103 12.6709C30.1948 11.2409 30.8969 9.92731 31.9278 8.89634C32.9588 7.86537 34.2724 7.16327 35.7024 6.87882C37.1324 6.59438 38.6146 6.74037 39.9616 7.29832C41.3087 7.85628 42.46 8.80115 43.27 10.0134C44.08 11.2257 44.5124 12.651 44.5124 14.109C44.5124 16.0642 43.7357 17.9392 42.3532 19.3217C40.9707 20.7042 39.0957 21.4809 37.1405 21.4809Z" fill="#DB4B40"/>
<path d="M33.3441 61.0063L7.6532 63.0582L6.42456 69.398H37.9638L39.0327 66.1666C36.9939 64.6106 35.0909 62.8843 33.3441 61.0063Z" fill="#A1B6C2"/>
<path d="M49.7711 35.6103H64.0602L70.0191 69.398C70.1586 70.0928 70.5349 70.7177 71.084 71.1659C71.633 71.6141 72.3206 71.8577 73.0293 71.8553C73.209 71.8735 73.3901 71.8735 73.5699 71.8553L66.628 32.5387H46.6995C46.6995 33.3533 47.0231 34.1346 47.5991 34.7106C48.1752 35.2867 48.9564 35.6103 49.7711 35.6103Z" fill="#FDFEFF"/>
<path d="M47.132 8.56886C47.8971 7.66917 47.1341 5.76354 45.4278 4.3125C43.7215 2.86147 41.718 2.41451 40.9529 3.3142C40.1879 4.21389 40.9509 6.11953 42.6572 7.57057C44.3635 9.0216 46.3669 9.46855 47.132 8.56886Z" fill="white"/>
<path d="M61.3402 42.8203C61.9514 42.1016 61.3403 40.5779 59.9752 39.4171C58.6102 38.2563 57.0081 37.8979 56.3969 38.6166C55.7858 39.3353 56.3969 40.859 57.7619 42.0198C59.127 43.1807 60.729 43.5391 61.3402 42.8203Z" fill="white"/>
<path d="M58.1287 44.3488C58.4672 43.9507 58.134 43.1114 57.3844 42.474C56.6349 41.8366 55.7529 41.6425 55.4144 42.0405C55.0759 42.4386 55.4091 43.2779 56.1587 43.9153C56.9082 44.5527 57.7902 44.7468 58.1287 44.3488Z" fill="white"/>
</svg>
